  0
SECTION
  2
HEADER
  9
$ACADVER
  1
AC1009
  9
$INSBASE
 10
0.0
 20
0.0
 30
0.0
  9
$EXTMIN
 10
0.0
 20
0.0
 30
0.0
  9
$EXTMAX
 10
0.0
 20
0.0
 30
0.0
  0
ENDSEC
  0
SECTION
  2
TABLES
  0
TABLE
  2
VPORT
 70
0
  0
ENDTAB
  0
TABLE
  2
LTYPE
 70
1
  0
LTYPE
  2
CONTINUOUS
 70
0
  3
Solid line
 72
65
 73
0
 40
0.0
  0
ENDTAB
  0
TABLE
  2
LAYER
 70
1
  0
LAYER
  2
0
 70
64
 62
7
  6
continuous
  0
ENDTAB
  0
TABLE
  2
STYLE
 70
1
  0
STYLE
  2
STANDARD
 70
0
 40
0
 41
1.0
 50
0.0
 71
0
 42
1
 3
ARIAL.TTF
 4

  0
ENDTAB
  0
TABLE
  2
VIEW
 70
0
  0
ENDTAB
  0
ENDSEC
  0
SECTION
  2
BLOCKS
  0
ENDSEC
  0
SECTION
  2
ENTITIES
  0
POLYLINE
  8
0
 62
0
 70
0
 66
1
 10
0.0
 20
0.0
 30
0.0
  0
VERTEX
  8
0
 10
-3.6
 20
10.0
 30
2.5
 42
-1.63312393532e+16
  0
VERTEX
  8
0
 10
-3.6
 20
10.0
 30
2.5
  0
VERTEX
  8
0
 10
-3.6
 20
10.0
 30
1407.97506543
 42
-1.63312393532e+16
  0
VERTEX
  8
0
 10
-3.6
 20
10.0
 30
1407.97506543
  0
SEQEND
  8
0
  0
POLYLINE
  8
0
 62
0
 70
1
 66
1
 10
0.0
 20
0.0
 30
0.0
  0
VERTEX
  8
0
 10
-129.925
 20
-49.725
 30
2.5
 42
0.414213562373
  0
VERTEX
  8
0
 10
-125.925
 20
-53.725
 30
2.5
  0
VERTEX
  8
0
 10
125.925
 20
-53.725
 30
2.5
 42
0.414213562373
  0
VERTEX
  8
0
 10
129.925
 20
-49.725
 30
2.5
  0
VERTEX
  8
0
 10
129.925
 20
49.725
 30
2.5
 42
0.414213562373
  0
VERTEX
  8
0
 10
125.925
 20
53.725
 30
2.5
  0
VERTEX
  8
0
 10
32.55
 20
53.725
 30
2.5
  0
VERTEX
  8
0
 10
29.95
 20
49.425
 30
2.5
  0
VERTEX
  8
0
 10
29.95
 20
44.225
 30
2.5
  0
VERTEX
  8
0
 10
20.05
 20
44.225
 30
2.5
  0
VERTEX
  8
0
 10
20.05
 20
49.425
 30
2.5
  0
VERTEX
  8
0
 10
17.45
 20
53.725
 30
2.5
  0
VERTEX
  8
0
 10
-125.925
 20
53.725
 30
2.5
 42
0.414213562373
  0
VERTEX
  8
0
 10
-129.925
 20
49.725
 30
2.5
  0
SEQEND
  8
0
  0
CIRCLE
  8
0
 62
0
 10
-5.0
 20
10.0
 30
2.5
 40
1.4
  0
CIRCLE
  8
0
 62
0
 10
-114.725
 20
38.525
 30
2.5
 40
0.9
  0
CIRCLE
  8
0
 62
0
 10
-5.0
 20
-10.0
 30
2.5
 40
1.4
  0
POLYLINE
  8
0
 62
0
 70
1
 66
1
 10
0.0
 20
0.0
 30
0.0
  0
VERTEX
  8
0
 10
20.0
 20
-30.0
 30
2.5
  0
VERTEX
  8
0
 10
20.0
 20
-20.0
 30
2.5
  0
VERTEX
  8
0
 10
30.0
 20
-20.0
 30
2.5
  0
VERTEX
  8
0
 10
30.0
 20
-30.0
 30
2.5
  0
SEQEND
  8
0
  0
CIRCLE
  8
0
 62
0
 10
5.0
 20
-10.0
 30
2.5
 40
1.4
  0
CIRCLE
  8
0
 62
0
 10
-124.825
 20
-48.625
 30
2.5
 40
2.65
  0
CIRCLE
  8
0
 62
0
 10
-41.6083333333
 20
-48.625
 30
2.5
 40
2.65
  0
CIRCLE
  8
0
 62
0
 10
-119.725
 20
43.525
 30
2.5
 40
1.9
  0
CIRCLE
  8
0
 62
0
 10
-124.825
 20
48.625
 30
2.5
 40
2.65
  0
CIRCLE
  8
0
 62
0
 10
41.6083333333
 20
48.625
 30
2.5
 40
2.65
  0
POLYLINE
  8
0
 62
0
 70
1
 66
1
 10
0.0
 20
0.0
 30
0.0
  0
VERTEX
  8
0
 10
50.0
 20
-50.0
 30
2.5
  0
VERTEX
  8
0
 10
43.8736975425
 20
-50.0
 30
2.5
 42
-1.20639665242
  0
VERTEX
  8
0
 10
40.0
 20
-46.518874674
 30
2.5
  0
VERTEX
  8
0
 10
40.0
 20
-40.0
 30
2.5
  0
VERTEX
  8
0
 10
50.0
 20
-40.0
 30
2.5
  0
SEQEND
  8
0
  0
CIRCLE
  8
0
 62
0
 10
-41.6083333333
 20
48.625
 30
2.5
 40
2.65
  0
CIRCLE
  8
0
 62
0
 10
5.0
 20
10.0
 30
2.5
 40
1.4
  0
CIRCLE
  8
0
 62
0
 10
124.825
 20
-48.625
 30
2.5
 40
2.65
  0
CIRCLE
  8
0
 62
0
 10
124.825
 20
48.625
 30
2.5
 40
2.65
  0
POLYLINE
  8
0
 62
0
 70
0
 66
1
 10
0.0
 20
0.0
 30
0.0
  0
VERTEX
  8
0
 10
-3.6
 20
-10.0
 30
2.5
 42
-1.63312393532e+16
  0
VERTEX
  8
0
 10
-3.6
 20
-10.0
 30
2.5
  0
VERTEX
  8
0
 10
-3.6
 20
-10.0
 30
1407.97506543
 42
-1.63312393532e+16
  0
VERTEX
  8
0
 10
-3.6
 20
-10.0
 30
1407.97506543
  0
SEQEND
  8
0
  0
POLYLINE
  8
0
 62
0
 70
0
 66
1
 10
0.0
 20
0.0
 30
0.0
  0
VERTEX
  8
0
 10
6.4
 20
-10.0
 30
2.5
 42
-1.63312393532e+16
  0
VERTEX
  8
0
 10
6.4
 20
-10.0
 30
2.5
  0
VERTEX
  8
0
 10
6.4
 20
-10.0
 30
1407.97506543
 42
-1.63312393532e+16
  0
VERTEX
  8
0
 10
6.4
 20
-10.0
 30
1407.97506543
  0
SEQEND
  8
0
  0
POLYLINE
  8
0
 62
0
 70
0
 66
1
 10
0.0
 20
0.0
 30
0.0
  0
VERTEX
  8
0
 10
6.4
 20
10.0
 30
2.5
 42
-1.63312393532e+16
  0
VERTEX
  8
0
 10
6.4
 20
10.0
 30
2.5
  0
VERTEX
  8
0
 10
6.4
 20
10.0
 30
1407.97506543
 42
-1.63312393532e+16
  0
VERTEX
  8
0
 10
6.4
 20
10.0
 30
1407.97506543
  0
SEQEND
  8
0
  0
POLYLINE
  8
0
 62
0
 70
1
 66
1
 10
0.0
 20
0.0
 30
0.0
  0
VERTEX
  8
0
 10
-129.925
 20
-49.725
 30
-2.5
  0
VERTEX
  8
0
 10
-129.925
 20
49.725
 30
-2.5
 42
-0.414213562373
  0
VERTEX
  8
0
 10
-125.925
 20
53.725
 30
-2.5
  0
VERTEX
  8
0
 10
17.45
 20
53.725
 30
-2.5
  0
VERTEX
  8
0
 10
20.05
 20
49.425
 30
-2.5
  0
VERTEX
  8
0
 10
29.95
 20
49.425
 30
-2.5
  0
VERTEX
  8
0
 10
32.55
 20
53.725
 30
-2.5
  0
VERTEX
  8
0
 10
125.925
 20
53.725
 30
-2.5
 42
-0.414213562373
  0
VERTEX
  8
0
 10
129.925
 20
49.725
 30
-2.5
  0
VERTEX
  8
0
 10
129.925
 20
-49.725
 30
-2.5
 42
-0.414213562373
  0
VERTEX
  8
0
 10
125.925
 20
-53.725
 30
-2.5
  0
VERTEX
  8
0
 10
-125.925
 20
-53.725
 30
-2.5
 42
-0.414213562373
  0
SEQEND
  8
0
  0
CIRCLE
  8
0
 62
0
 10
-5.0
 20
-10.0
 30
-2.5
 40
1.4
  0
CIRCLE
  8
0
 62
0
 10
-41.6083333333
 20
-48.625
 30
-2.5
 40
2.65
  0
CIRCLE
  8
0
 62
0
 10
-124.825
 20
-48.625
 30
-2.5
 40
2.65
  0
CIRCLE
  8
0
 62
0
 10
5.0
 20
10.0
 30
-2.5
 40
1.4
  0
CIRCLE
  8
0
 62
0
 10
5.0
 20
-10.0
 30
-2.5
 40
1.4
  0
CIRCLE
  8
0
 62
0
 10
-5.0
 20
10.0
 30
-2.5
 40
1.4
  0
CIRCLE
  8
0
 62
0
 10
-114.725
 20
38.525
 30
-2.5
 40
0.9
  0
CIRCLE
  8
0
 62
0
 10
-119.725
 20
43.525
 30
-2.5
 40
1.9
  0
CIRCLE
  8
0
 62
0
 10
-41.6083333333
 20
48.625
 30
-2.5
 40
2.65
  0
CIRCLE
  8
0
 62
0
 10
-124.825
 20
48.625
 30
-2.5
 40
2.65
  0
CIRCLE
  8
0
 62
0
 10
124.825
 20
48.625
 30
-2.5
 40
2.65
  0
CIRCLE
  8
0
 62
0
 10
41.6083333333
 20
48.625
 30
-2.5
 40
2.65
  0
POLYLINE
  8
0
 62
0
 70
1
 66
1
 10
0.0
 20
0.0
 30
0.0
  0
VERTEX
  8
0
 10
43.8736975425
 20
-50.0
 30
-2.5
 42
-1.20639665242
  0
VERTEX
  8
0
 10
40.0
 20
-46.518874674
 30
-2.5
  0
VERTEX
  8
0
 10
40.0
 20
-40.0
 30
-2.5
  0
VERTEX
  8
0
 10
50.0
 20
-40.0
 30
-2.5
  0
VERTEX
  8
0
 10
50.0
 20
-50.0
 30
-2.5
  0
SEQEND
  8
0
  0
CIRCLE
  8
0
 62
0
 10
124.825
 20
-48.625
 30
-2.5
 40
2.65
  0
POLYLINE
  8
0
 62
0
 70
1
 66
1
 10
0.0
 20
0.0
 30
0.0
  0
VERTEX
  8
0
 10
30.0
 20
-20.0
 30
-2.5
  0
VERTEX
  8
0
 10
20.0
 20
-20.0
 30
-2.5
  0
VERTEX
  8
0
 10
20.0
 20
-30.0
 30
-2.5
  0
VERTEX
  8
0
 10
30.0
 20
-30.0
 30
-2.5
  0
SEQEND
  8
0
  0
ENDSEC
  0
EOF
