  0
SECTION
  2
HEADER
  9
$ACADVER
  1
AC1009
  9
$INSBASE
 10
0.0
 20
0.0
 30
0.0
  9
$EXTMIN
 10
0.0
 20
0.0
 30
0.0
  9
$EXTMAX
 10
0.0
 20
0.0
 30
0.0
  0
ENDSEC
  0
SECTION
  2
TABLES
  0
TABLE
  2
VPORT
 70
0
  0
ENDTAB
  0
TABLE
  2
LTYPE
 70
1
  0
LTYPE
  2
CONTINUOUS
 70
0
  3
Solid line
 72
65
 73
0
 40
0.0
  0
ENDTAB
  0
TABLE
  2
LAYER
 70
1
  0
LAYER
  2
0
 70
64
 62
7
  6
continuous
  0
ENDTAB
  0
TABLE
  2
STYLE
 70
1
  0
STYLE
  2
STANDARD
 70
0
 40
0
 41
1.0
 50
0.0
 71
0
 42
1
 3
ARIAL.TTF
 4

  0
ENDTAB
  0
TABLE
  2
VIEW
 70
0
  0
ENDTAB
  0
ENDSEC
  0
SECTION
  2
BLOCKS
  0
BLOCK
  8
0
  2
SHAPE
 70
0
 10
0.0
 20
0.0
 30
0.0
  3
SHAPE
  0
LINE
  8
0
 62
0
 10
-132.425
 20
-52.225
 30
0.0
 11
-132.425
 21
52.225
 31
0.0
  0
ARC
  8
0
 62
0
 10
-128.425
 20
-52.225
 30
0.0
 40
4.0
 50
-180.0
 51
-90.0
  0
ARC
  8
0
 62
0
 10
-128.425
 20
52.225
 30
0.0
 40
4.0
 50
90.0
 51
180.0
  0
LINE
  8
0
 62
0
 10
-128.425
 20
-56.225
 30
0.0
 11
128.425
 21
-56.225
 31
0.0
  0
LINE
  8
0
 62
0
 10
-128.425
 20
56.225
 30
0.0
 11
128.425
 21
56.225
 31
0.0
  0
ARC
  8
0
 62
0
 10
128.425
 20
-52.225
 30
0.0
 40
4.0
 50
-90.0
 51
-0.0
  0
ARC
  8
0
 62
0
 10
128.425
 20
52.225
 30
0.0
 40
4.0
 50
0.0
 51
90.0
  0
LINE
  8
0
 62
0
 10
132.425
 20
-52.225
 30
0.0
 11
132.425
 21
52.225
 31
0.0
  0
LINE
  8
0
 62
0
 10
-122.298638981
 20
-49.425
 30
0.0
 11
-44.1346943527
 21
-49.425
 31
0.0
  0
ARC
  8
0
 62
0
 10
-41.6083333333
 20
-48.625
 30
0.0
 40
2.65
 50
-162.429036447
 51
-17.5709635533
  0
LINE
  8
0
 62
0
 10
-39.081972314
 20
-49.425
 30
0.0
 11
39.081972314
 21
-49.425
 31
0.0
  0
ARC
  8
0
 62
0
 10
41.6083333333
 20
-48.625
 30
0.0
 40
2.65
 50
-162.429036447
 51
-17.5709635533
  0
LINE
  8
0
 62
0
 10
44.1346943527
 20
-49.425
 30
0.0
 11
122.298638981
 21
-49.425
 31
0.0
  0
ARC
  8
0
 62
0
 10
124.825
 20
-48.625
 30
0.0
 40
2.65
 50
-162.429036447
 51
-0.0
  0
ARC
  8
0
 62
0
 10
124.825
 20
-48.625
 30
0.0
 40
2.65
 50
0.0
 51
72.4290364467
  0
LINE
  8
0
 62
0
 10
125.625
 20
-46.0986389807
 30
0.0
 11
125.625
 21
46.0986389807
 31
0.0
  0
ARC
  8
0
 62
0
 10
124.825
 20
48.625
 30
0.0
 40
2.65
 50
-72.4290364467
 51
-0.0
  0
ARC
  8
0
 62
0
 10
124.825
 20
48.625
 30
0.0
 40
2.65
 50
-0.0
 51
162.429036447
  0
LINE
  8
0
 62
0
 10
122.298638981
 20
49.425
 30
0.0
 11
44.1346943527
 21
49.425
 31
0.0
  0
ARC
  8
0
 62
0
 10
41.6083333333
 20
48.625
 30
0.0
 40
2.65
 50
17.5709635533
 51
162.429036447
  0
LINE
  8
0
 62
0
 10
39.081972314
 20
49.425
 30
0.0
 11
-39.081972314
 21
49.425
 31
0.0
  0
ARC
  8
0
 62
0
 10
-41.6083333333
 20
48.625
 30
0.0
 40
2.65
 50
17.5709635533
 51
162.429036447
  0
LINE
  8
0
 62
0
 10
-44.1346943527
 20
49.425
 30
0.0
 11
-122.298638981
 21
49.425
 31
0.0
  0
ARC
  8
0
 62
0
 10
-124.825
 20
48.625
 30
0.0
 40
2.65
 50
-107.570963553
 51
17.5709635533
  0
LINE
  8
0
 62
0
 10
-125.625
 20
46.0986389807
 30
0.0
 11
-125.625
 21
-46.0986389807
 31
0.0
  0
ARC
  8
0
 62
0
 10
-124.825
 20
-48.625
 30
0.0
 40
2.65
 50
-17.5709635533
 51
107.570963553
  0
ARC
  8
0
 62
0
 10
-124.825
 20
-48.625
 30
0.0
 40
2.65
 50
-0.0
 51
107.570963553
  0
ARC
  8
0
 62
0
 10
-124.825
 20
48.625
 30
0.0
 40
2.65
 50
-107.570963553
 51
-0.0
  0
ARC
  8
0
 62
0
 10
-124.825
 20
48.625
 30
0.0
 40
2.65
 50
0.0
 51
17.5709635533
  0
ARC
  8
0
 62
0
 10
-41.6083333333
 20
48.625
 30
0.0
 40
2.65
 50
-0.0
 51
162.429036447
  0
ARC
  8
0
 62
0
 10
-41.6083333333
 20
48.625
 30
0.0
 40
2.65
 50
0.0
 51
17.5709635533
  0
ARC
  8
0
 62
0
 10
41.6083333333
 20
48.625
 30
0.0
 40
2.65
 50
-0.0
 51
162.429036447
  0
ARC
  8
0
 62
0
 10
41.6083333333
 20
48.625
 30
0.0
 40
2.65
 50
0.0
 51
17.5709635533
  0
ARC
  8
0
 62
0
 10
124.825
 20
48.625
 30
0.0
 40
2.65
 50
162.429036447
 51
-72.4290364467
  0
ARC
  8
0
 62
0
 10
124.825
 20
-48.625
 30
0.0
 40
2.65
 50
72.4290364467
 51
-162.429036447
  0
ARC
  8
0
 62
0
 10
41.6083333333
 20
-48.625
 30
0.0
 40
2.65
 50
-17.5709635533
 51
-0.0
  0
ARC
  8
0
 62
0
 10
41.6083333333
 20
-48.625
 30
0.0
 40
2.65
 50
-162.429036447
 51
-0.0
  0
ARC
  8
0
 62
0
 10
-41.6083333333
 20
-48.625
 30
0.0
 40
2.65
 50
-17.5709635533
 51
-0.0
  0
ARC
  8
0
 62
0
 10
-41.6083333333
 20
-48.625
 30
0.0
 40
2.65
 50
-162.429036447
 51
-0.0
  0
ARC
  8
0
 62
0
 10
-124.825
 20
-48.625
 30
0.0
 40
2.65
 50
-17.5709635533
 51
-0.0
  0
LINE
  8
0
 62
0
 10
13.0
 20
23.0
 30
0.0
 11
7.0
 21
17.0
 31
0.0
  0
LINE
  8
0
 62
0
 10
13.0
 20
31.0
 30
0.0
 11
13.0
 21
23.0
 31
0.0
  0
LINE
  8
0
 62
0
 10
7.0
 20
37.0
 30
0.0
 11
13.0
 21
31.0
 31
0.0
  0
LINE
  8
0
 62
0
 10
-11.0
 20
37.0
 30
0.0
 11
7.0
 21
37.0
 31
0.0
  0
LINE
  8
0
 62
0
 10
-17.0
 20
31.0
 30
0.0
 11
-11.0
 21
37.0
 31
0.0
  0
LINE
  8
0
 62
0
 10
-17.0
 20
23.0
 30
0.0
 11
-17.0
 21
31.0
 31
0.0
  0
LINE
  8
0
 62
0
 10
-11.0
 20
17.0
 30
0.0
 11
-17.0
 21
23.0
 31
0.0
  0
LINE
  8
0
 62
0
 10
7.0
 20
17.0
 30
0.0
 11
-11.0
 21
17.0
 31
0.0
  0
LINE
  8
0
 62
0
 10
-12.0
 20
-15.0
 30
0.0
 11
-20.0
 21
-7.0
 31
0.0
  0
LINE
  8
0
 62
0
 10
8.0
 20
-15.0
 30
0.0
 11
-12.0
 21
-15.0
 31
0.0
  0
LINE
  8
0
 62
0
 10
16.0
 20
-7.0
 30
0.0
 11
8.0
 21
-15.0
 31
0.0
  0
LINE
  8
0
 62
0
 10
16.0
 20
7.0
 30
0.0
 11
16.0
 21
-7.0
 31
0.0
  0
LINE
  8
0
 62
0
 10
8.0
 20
15.0
 30
0.0
 11
16.0
 21
7.0
 31
0.0
  0
LINE
  8
0
 62
0
 10
-12.0
 20
15.0
 30
0.0
 11
8.0
 21
15.0
 31
0.0
  0
LINE
  8
0
 62
0
 10
-20.0
 20
7.0
 30
0.0
 11
-12.0
 21
15.0
 31
0.0
  0
LINE
  8
0
 62
0
 10
-20.0
 20
-7.0
 30
0.0
 11
-20.0
 21
7.0
 31
0.0
  0
LINE
  8
0
 62
0
 10
7.0
 20
-17.0
 30
0.0
 11
13.0
 21
-23.0
 31
0.0
  0
LINE
  8
0
 62
0
 10
-11.0
 20
-17.0
 30
0.0
 11
7.0
 21
-17.0
 31
0.0
  0
LINE
  8
0
 62
0
 10
-17.0
 20
-23.0
 30
0.0
 11
-11.0
 21
-17.0
 31
0.0
  0
LINE
  8
0
 62
0
 10
-17.0
 20
-31.0
 30
0.0
 11
-17.0
 21
-23.0
 31
0.0
  0
LINE
  8
0
 62
0
 10
-11.0
 20
-37.0
 30
0.0
 11
-17.0
 21
-31.0
 31
0.0
  0
LINE
  8
0
 62
0
 10
7.0
 20
-37.0
 30
0.0
 11
-11.0
 21
-37.0
 31
0.0
  0
LINE
  8
0
 62
0
 10
13.0
 20
-31.0
 30
0.0
 11
7.0
 21
-37.0
 31
0.0
  0
LINE
  8
0
 62
0
 10
13.0
 20
-23.0
 30
0.0
 11
13.0
 21
-31.0
 31
0.0
  0
CIRCLE
  8
0
 62
0
 10
-7.0
 20
27.0
 30
0.0
 40
2.9
  0
CIRCLE
  8
0
 62
0
 10
3.0
 20
27.0
 30
0.0
 40
2.9
  0
CIRCLE
  8
0
 62
0
 10
-7.0
 20
0.0
 30
0.0
 40
2.9
  0
CIRCLE
  8
0
 62
0
 10
3.0
 20
0.0
 30
0.0
 40
2.9
  0
CIRCLE
  8
0
 62
0
 10
3.0
 20
-27.0
 30
0.0
 40
2.9
  0
CIRCLE
  8
0
 62
0
 10
-7.0
 20
-27.0
 30
0.0
 40
2.9
  0
ENDBLK
  0
ENDSEC
  0
SECTION
  2
ENTITIES
  0
INSERT
  2
SHAPE
  8
0
 10
0.0
 20
0.0
 30
0.0
  0
ENDSEC
  0
EOF
