  0
SECTION
  2
HEADER
  9
$ACADVER
  1
AC1009
  9
$INSBASE
 10
0.0
 20
0.0
 30
0.0
  9
$EXTMIN
 10
0.0
 20
0.0
 30
0.0
  9
$EXTMAX
 10
0.0
 20
0.0
 30
0.0
  0
ENDSEC
  0
SECTION
  2
TABLES
  0
TABLE
  2
VPORT
 70
0
  0
ENDTAB
  0
TABLE
  2
LTYPE
 70
1
  0
LTYPE
  2
CONTINUOUS
 70
0
  3
Solid line
 72
65
 73
0
 40
0.0
  0
ENDTAB
  0
TABLE
  2
LAYER
 70
1
  0
LAYER
  2
0
 70
64
 62
7
  6
continuous
  0
ENDTAB
  0
TABLE
  2
STYLE
 70
1
  0
STYLE
  2
STANDARD
 70
0
 40
0
 41
1.0
 50
0.0
 71
0
 42
1
 3
ARIAL.TTF
 4

  0
ENDTAB
  0
TABLE
  2
VIEW
 70
0
  0
ENDTAB
  0
ENDSEC
  0
SECTION
  2
BLOCKS
  0
BLOCK
  8
0
  2
SHAPE
 70
0
 10
0.0
 20
0.0
 30
0.0
  3
SHAPE
  0
LINE
  8
0
 62
0
 10
-129.925
 20
-49.725
 30
0.0
 11
-129.925
 21
49.725
 31
0.0
  0
ARC
  8
0
 62
0
 10
-125.925
 20
-49.725
 30
0.0
 40
4.0
 50
180.0
 51
-90.0
  0
ARC
  8
0
 62
0
 10
-125.925
 20
49.725
 30
0.0
 40
4.0
 50
90.0
 51
-180.0
  0
LINE
  8
0
 62
0
 10
-125.925
 20
-53.725
 30
0.0
 11
125.925
 21
-53.725
 31
0.0
  0
LINE
  8
0
 62
0
 10
-125.925
 20
53.725
 30
0.0
 11
17.45
 21
53.725
 31
0.0
  0
ARC
  8
0
 62
0
 10
125.925
 20
-49.725
 30
0.0
 40
4.0
 50
-90.0
 51
0.0
  0
LINE
  8
0
 62
0
 10
17.45
 20
53.725
 30
0.0
 11
20.05
 21
49.425
 31
0.0
  0
LINE
  8
0
 62
0
 10
129.925
 20
-49.725
 30
0.0
 11
129.925
 21
49.725
 31
0.0
  0
LINE
  8
0
 62
0
 10
20.05
 20
49.425
 30
0.0
 11
29.95
 21
49.425
 31
0.0
  0
ARC
  8
0
 62
0
 10
125.925
 20
49.725
 30
0.0
 40
4.0
 50
-0.0
 51
90.0
  0
LINE
  8
0
 62
0
 10
29.95
 20
49.425
 30
0.0
 11
32.55
 21
53.725
 31
0.0
  0
LINE
  8
0
 62
0
 10
32.55
 20
53.725
 30
0.0
 11
125.925
 21
53.725
 31
0.0
  0
LINE
  8
0
 62
0
 10
65.1875
 20
14.95
 30
0.0
 11
65.1875
 21
10.15
 31
0.0
  0
LINE
  8
0
 62
0
 10
67.6875
 20
14.95
 30
0.0
 11
65.1875
 21
14.95
 31
0.0
  0
LINE
  8
0
 62
0
 10
65.1875
 20
10.15
 30
0.0
 11
67.6875
 21
10.15
 31
0.0
  0
LINE
  8
0
 62
0
 10
67.6875
 20
10.15
 30
0.0
 11
67.6875
 21
14.95
 31
0.0
  0
LINE
  8
0
 62
0
 10
61.0875
 20
26.35
 30
0.0
 11
43.6875
 21
26.35
 31
0.0
  0
LINE
  8
0
 62
0
 10
61.0875
 20
11.75
 30
0.0
 11
61.0875
 21
26.35
 31
0.0
  0
LINE
  8
0
 62
0
 10
43.6875
 20
26.35
 30
0.0
 11
43.6875
 21
11.75
 31
0.0
  0
LINE
  8
0
 62
0
 10
43.6875
 20
11.75
 30
0.0
 11
61.0875
 21
11.75
 31
0.0
  0
LINE
  8
0
 62
0
 10
72.99375
 20
7.3
 30
0.0
 11
55.59375
 21
7.3
 31
0.0
  0
LINE
  8
0
 62
0
 10
72.99375
 20
-7.3
 30
0.0
 11
72.99375
 21
7.3
 31
0.0
  0
LINE
  8
0
 62
0
 10
55.59375
 20
7.3
 30
0.0
 11
55.59375
 21
-7.3
 31
0.0
  0
LINE
  8
0
 62
0
 10
55.59375
 20
-7.3
 30
0.0
 11
72.99375
 21
-7.3
 31
0.0
  0
LINE
  8
0
 62
0
 10
55.59375
 20
-30.8
 30
0.0
 11
55.59375
 21
-45.4
 31
0.0
  0
LINE
  8
0
 62
0
 10
72.99375
 20
-30.8
 30
0.0
 11
55.59375
 21
-30.8
 31
0.0
  0
LINE
  8
0
 62
0
 10
55.59375
 20
-45.4
 30
0.0
 11
72.99375
 21
-45.4
 31
0.0
  0
LINE
  8
0
 62
0
 10
72.99375
 20
-45.4
 30
0.0
 11
72.99375
 21
-30.8
 31
0.0
  0
LINE
  8
0
 62
0
 10
70.6125
 20
-26.35
 30
0.0
 11
70.6125
 21
-11.75
 31
0.0
  0
LINE
  8
0
 62
0
 10
53.2125
 20
-26.35
 30
0.0
 11
70.6125
 21
-26.35
 31
0.0
  0
LINE
  8
0
 62
0
 10
70.6125
 20
-11.75
 30
0.0
 11
53.2125
 21
-11.75
 31
0.0
  0
LINE
  8
0
 62
0
 10
53.2125
 20
-11.75
 30
0.0
 11
53.2125
 21
-26.35
 31
0.0
  0
CIRCLE
  8
0
 62
0
 10
41.6083333333
 20
-48.625
 30
0.0
 40
2.65
  0
LINE
  8
0
 62
0
 10
37.0875
 20
10.15
 30
0.0
 11
37.0875
 21
14.95
 31
0.0
  0
LINE
  8
0
 62
0
 10
39.5875
 20
10.15
 30
0.0
 11
37.0875
 21
10.15
 31
0.0
  0
LINE
  8
0
 62
0
 10
37.0875
 20
14.95
 30
0.0
 11
39.5875
 21
14.95
 31
0.0
  0
LINE
  8
0
 62
0
 10
39.5875
 20
14.95
 30
0.0
 11
39.5875
 21
10.15
 31
0.0
  0
ARC
  8
0
 62
0
 10
-41.6083333333
 20
-48.625
 30
0.0
 40
2.65
 50
-172.955423763
 51
-7.04457623675
  0
LINE
  8
0
 62
0
 10
-38.9783380862
 20
-48.95
 30
0.0
 11
-9.19375
 21
-48.95
 31
0.0
  0
LINE
  8
0
 62
0
 10
-119.39375
 20
-48.95
 30
0.0
 11
-44.2383285805
 21
-48.95
 31
0.0
  0
LINE
  8
0
 62
0
 10
-9.19375
 20
-48.95
 30
0.0
 11
-9.19375
 21
-30.2
 31
0.0
  0
LINE
  8
0
 62
0
 10
-119.39375
 20
-30.2
 30
0.0
 11
-119.39375
 21
-48.95
 31
0.0
  0
LINE
  8
0
 62
0
 10
-9.19375
 20
-30.2
 30
0.0
 11
-119.39375
 21
-30.2
 31
0.0
  0
LINE
  8
0
 62
0
 10
-9.19375
 20
-11.15
 30
0.0
 11
-119.39375
 21
-11.15
 31
0.0
  0
LINE
  8
0
 62
0
 10
-9.19375
 20
-29.9
 30
0.0
 11
-9.19375
 21
-11.15
 31
0.0
  0
LINE
  8
0
 62
0
 10
-119.39375
 20
-11.15
 30
0.0
 11
-119.39375
 21
-29.9
 31
0.0
  0
LINE
  8
0
 62
0
 10
-119.39375
 20
-29.9
 30
0.0
 11
-9.19375
 21
-29.9
 31
0.0
  0
LINE
  8
0
 62
0
 10
-42.9875
 20
8.2
 30
0.0
 11
-37.8875
 21
8.2
 31
0.0
  0
LINE
  8
0
 62
0
 10
-42.9875
 20
26.45
 30
0.0
 11
-42.9875
 21
8.2
 31
0.0
  0
LINE
  8
0
 62
0
 10
-37.8875
 20
8.2
 30
0.0
 11
-37.8875
 21
26.45
 31
0.0
  0
LINE
  8
0
 62
0
 10
-37.8875
 20
26.45
 30
0.0
 11
-42.9875
 21
26.45
 31
0.0
  0
LINE
  8
0
 62
0
 10
17.0
 20
26.95
 30
0.0
 11
-17.0
 21
26.95
 31
0.0
  0
LINE
  8
0
 62
0
 10
17.0
 20
8.2
 30
0.0
 11
17.0
 21
26.95
 31
0.0
  0
LINE
  8
0
 62
0
 10
-17.0
 20
26.95
 30
0.0
 11
-17.0
 21
8.2
 31
0.0
  0
LINE
  8
0
 62
0
 10
-17.0
 20
8.2
 30
0.0
 11
17.0
 21
8.2
 31
0.0
  0
LINE
  8
0
 62
0
 10
11.69375
 20
-4.1
 30
0.0
 11
14.19375
 21
-4.1
 31
0.0
  0
LINE
  8
0
 62
0
 10
11.69375
 20
-8.9
 30
0.0
 11
11.69375
 21
-4.1
 31
0.0
  0
LINE
  8
0
 62
0
 10
14.19375
 20
-4.1
 30
0.0
 11
14.19375
 21
-8.9
 31
0.0
  0
LINE
  8
0
 62
0
 10
14.19375
 20
-8.9
 30
0.0
 11
11.69375
 21
-8.9
 31
0.0
  0
LINE
  8
0
 62
0
 10
-61.7875
 20
26.45
 30
0.0
 11
-61.7875
 21
8.2
 31
0.0
  0
LINE
  8
0
 62
0
 10
-66.8875
 20
26.45
 30
0.0
 11
-61.7875
 21
26.45
 31
0.0
  0
LINE
  8
0
 62
0
 10
-61.7875
 20
8.2
 30
0.0
 11
-66.8875
 21
8.2
 31
0.0
  0
LINE
  8
0
 62
0
 10
-66.8875
 20
8.2
 30
0.0
 11
-66.8875
 21
26.45
 31
0.0
  0
LINE
  8
0
 62
0
 10
-60.2875
 20
11.15
 30
0.0
 11
-44.4875
 21
11.15
 31
0.0
  0
LINE
  8
0
 62
0
 10
-60.2875
 20
26.95
 30
0.0
 11
-60.2875
 21
11.15
 31
0.0
  0
LINE
  8
0
 62
0
 10
-44.4875
 20
11.15
 30
0.0
 11
-44.4875
 21
26.95
 31
0.0
  0
LINE
  8
0
 62
0
 10
-44.4875
 20
26.95
 30
0.0
 11
-60.2875
 21
26.95
 31
0.0
  0
LINE
  8
0
 62
0
 10
-13.95
 20
7.9
 30
0.0
 11
-119.4
 21
7.9
 31
0.0
  0
LINE
  8
0
 62
0
 10
-13.95
 20
-10.85
 30
0.0
 11
-13.95
 21
7.9
 31
0.0
  0
LINE
  8
0
 62
0
 10
-119.4
 20
7.9
 30
0.0
 11
-119.4
 21
-10.85
 31
0.0
  0
LINE
  8
0
 62
0
 10
-119.4
 20
-10.85
 30
0.0
 11
-13.95
 21
-10.85
 31
0.0
  0
LINE
  8
0
 62
0
 10
-87.775
 20
26.95
 30
0.0
 11
-121.775
 21
26.95
 31
0.0
  0
LINE
  8
0
 62
0
 10
-87.775
 20
8.2
 30
0.0
 11
-87.775
 21
26.95
 31
0.0
  0
LINE
  8
0
 62
0
 10
-121.775
 20
26.95
 30
0.0
 11
-121.775
 21
8.2
 31
0.0
  0
LINE
  8
0
 62
0
 10
-121.775
 20
8.2
 30
0.0
 11
-87.775
 21
8.2
 31
0.0
  0
LINE
  8
0
 62
0
 10
11.74375
 20
-30.7
 30
0.0
 11
16.84375
 21
-30.7
 31
0.0
  0
LINE
  8
0
 62
0
 10
11.74375
 20
-48.95
 30
0.0
 11
11.74375
 21
-30.7
 31
0.0
  0
LINE
  8
0
 62
0
 10
16.84375
 20
-48.95
 30
0.0
 11
11.74375
 21
-48.95
 31
0.0
  0
LINE
  8
0
 62
0
 10
16.84375
 20
-30.7
 30
0.0
 11
16.84375
 21
-48.95
 31
0.0
  0
LINE
  8
0
 62
0
 10
17.8125
 20
-23.15
 30
0.0
 11
17.8125
 21
-27.95
 31
0.0
  0
LINE
  8
0
 62
0
 10
15.3125
 20
-23.15
 30
0.0
 11
17.8125
 21
-23.15
 31
0.0
  0
LINE
  8
0
 62
0
 10
17.8125
 20
-27.95
 30
0.0
 11
15.3125
 21
-27.95
 31
0.0
  0
LINE
  8
0
 62
0
 10
15.3125
 20
-27.95
 30
0.0
 11
15.3125
 21
-23.15
 31
0.0
  0
CIRCLE
  8
0
 62
0
 10
41.6083333333
 20
48.625
 30
0.0
 40
2.65
  0
LINE
  8
0
 62
0
 10
60.2875
 20
46.0
 30
0.0
 11
44.4875
 21
46.0
 31
0.0
  0
LINE
  8
0
 62
0
 10
60.2875
 20
30.2
 30
0.0
 11
60.2875
 21
46.0
 31
0.0
  0
LINE
  8
0
 62
0
 10
44.4875
 20
46.0
 30
0.0
 11
44.4875
 21
30.2
 31
0.0
  0
LINE
  8
0
 62
0
 10
44.4875
 20
30.2
 30
0.0
 11
60.2875
 21
30.2
 31
0.0
  0
LINE
  8
0
 62
0
 10
7.9
 20
46.0
 30
0.0
 11
-7.9
 21
46.0
 31
0.0
  0
LINE
  8
0
 62
0
 10
7.9
 20
30.2
 30
0.0
 11
7.9
 21
46.0
 31
0.0
  0
LINE
  8
0
 62
0
 10
-7.9
 20
46.0
 30
0.0
 11
-7.9
 21
30.2
 31
0.0
  0
LINE
  8
0
 62
0
 10
-7.9
 20
30.2
 30
0.0
 11
7.9
 21
30.2
 31
0.0
  0
LINE
  8
0
 62
0
 10
-44.4875
 20
46.0
 30
0.0
 11
-60.2875
 21
46.0
 31
0.0
  0
LINE
  8
0
 62
0
 10
-44.4875
 20
45.4
 30
0.0
 11
-44.4875
 21
46.0
 31
0.0
  0
LINE
  8
0
 62
0
 10
-60.2875
 20
46.0
 30
0.0
 11
-60.2875
 21
45.4
 31
0.0
  0
LINE
  8
0
 62
0
 10
-43.6875
 20
45.4
 30
0.0
 11
-44.4875
 21
45.4
 31
0.0
  0
LINE
  8
0
 62
0
 10
-60.2875
 20
45.4
 30
0.0
 11
-61.0875
 21
45.4
 31
0.0
  0
LINE
  8
0
 62
0
 10
-43.6875
 20
30.8
 30
0.0
 11
-43.6875
 21
45.4
 31
0.0
  0
LINE
  8
0
 62
0
 10
-61.0875
 20
45.4
 30
0.0
 11
-61.0875
 21
30.8
 31
0.0
  0
LINE
  8
0
 62
0
 10
-44.4875
 20
30.8
 30
0.0
 11
-43.6875
 21
30.8
 31
0.0
  0
LINE
  8
0
 62
0
 10
-61.0875
 20
30.8
 30
0.0
 11
-60.2875
 21
30.8
 31
0.0
  0
LINE
  8
0
 62
0
 10
-44.4875
 20
30.2
 30
0.0
 11
-44.4875
 21
30.8
 31
0.0
  0
LINE
  8
0
 62
0
 10
-60.2875
 20
30.8
 30
0.0
 11
-60.2875
 21
30.2
 31
0.0
  0
LINE
  8
0
 62
0
 10
-60.2875
 20
30.2
 30
0.0
 11
-44.4875
 21
30.2
 31
0.0
  0
CIRCLE
  8
0
 62
0
 10
-41.6083333333
 20
48.625
 30
0.0
 40
2.65
  0
LINE
  8
0
 62
0
 10
-122.2
 20
30.2
 30
0.0
 11
-106.4
 21
30.2
 31
0.0
  0
LINE
  8
0
 62
0
 10
-122.2
 20
46.0
 30
0.0
 11
-122.2
 21
30.2
 31
0.0
  0
LINE
  8
0
 62
0
 10
-106.4
 20
30.2
 30
0.0
 11
-106.4
 21
46.0
 31
0.0
  0
LINE
  8
0
 62
0
 10
-106.4
 20
46.0
 30
0.0
 11
-122.2
 21
46.0
 31
0.0
  0
CIRCLE
  8
0
 62
0
 10
-124.825
 20
48.625
 30
0.0
 40
2.65
  0
CIRCLE
  8
0
 62
0
 10
-124.825
 20
-48.625
 30
0.0
 40
2.65
  0
LINE
  8
0
 62
0
 10
117.575
 20
10.15
 30
0.0
 11
120.075
 21
10.15
 31
0.0
  0
LINE
  8
0
 62
0
 10
117.575
 20
14.95
 30
0.0
 11
117.575
 21
10.15
 31
0.0
  0
LINE
  8
0
 62
0
 10
120.075
 20
10.15
 30
0.0
 11
120.075
 21
14.95
 31
0.0
  0
LINE
  8
0
 62
0
 10
120.075
 20
14.95
 30
0.0
 11
117.575
 21
14.95
 31
0.0
  0
LINE
  8
0
 62
0
 10
116.89375
 20
-8.9
 30
0.0
 11
116.89375
 21
-4.1
 31
0.0
  0
LINE
  8
0
 62
0
 10
114.39375
 20
-8.9
 30
0.0
 11
116.89375
 21
-8.9
 31
0.0
  0
LINE
  8
0
 62
0
 10
116.89375
 20
-4.1
 30
0.0
 11
114.39375
 21
-4.1
 31
0.0
  0
LINE
  8
0
 62
0
 10
114.39375
 20
-4.1
 30
0.0
 11
114.39375
 21
-8.9
 31
0.0
  0
LINE
  8
0
 62
0
 10
113.475
 20
11.75
 30
0.0
 11
113.475
 21
26.35
 31
0.0
  0
LINE
  8
0
 62
0
 10
96.075
 20
11.75
 30
0.0
 11
113.475
 21
11.75
 31
0.0
  0
LINE
  8
0
 62
0
 10
113.475
 20
26.35
 30
0.0
 11
96.075
 21
26.35
 31
0.0
  0
LINE
  8
0
 62
0
 10
96.075
 20
26.35
 30
0.0
 11
96.075
 21
11.75
 31
0.0
  0
LINE
  8
0
 62
0
 10
116.84375
 20
-48.95
 30
0.0
 11
116.84375
 21
-30.7
 31
0.0
  0
LINE
  8
0
 62
0
 10
116.84375
 20
-30.7
 30
0.0
 11
111.74375
 21
-30.7
 31
0.0
  0
LINE
  8
0
 62
0
 10
111.74375
 20
-30.7
 30
0.0
 11
111.74375
 21
-48.95
 31
0.0
  0
LINE
  8
0
 62
0
 10
111.74375
 20
-48.95
 30
0.0
 11
116.84375
 21
-48.95
 31
0.0
  0
LINE
  8
0
 62
0
 10
106.0125
 20
-27.95
 30
0.0
 11
108.5125
 21
-27.95
 31
0.0
  0
LINE
  8
0
 62
0
 10
106.0125
 20
-23.15
 30
0.0
 11
106.0125
 21
-27.95
 31
0.0
  0
LINE
  8
0
 62
0
 10
108.5125
 20
-27.95
 30
0.0
 11
108.5125
 21
-23.15
 31
0.0
  0
LINE
  8
0
 62
0
 10
108.5125
 20
-23.15
 30
0.0
 11
106.0125
 21
-23.15
 31
0.0
  0
LINE
  8
0
 62
0
 10
123.0
 20
30.8
 30
0.0
 11
123.0
 21
45.4
 31
0.0
  0
LINE
  8
0
 62
0
 10
105.6
 20
30.8
 30
0.0
 11
123.0
 21
30.8
 31
0.0
  0
LINE
  8
0
 62
0
 10
123.0
 20
45.4
 30
0.0
 11
105.6
 21
45.4
 31
0.0
  0
LINE
  8
0
 62
0
 10
105.6
 20
45.4
 30
0.0
 11
105.6
 21
30.8
 31
0.0
  0
LINE
  8
0
 62
0
 10
89.475
 20
14.95
 30
0.0
 11
91.975
 21
14.95
 31
0.0
  0
LINE
  8
0
 62
0
 10
89.475
 20
10.15
 30
0.0
 11
89.475
 21
14.95
 31
0.0
  0
LINE
  8
0
 62
0
 10
91.975
 20
14.95
 30
0.0
 11
91.975
 21
10.15
 31
0.0
  0
LINE
  8
0
 62
0
 10
91.975
 20
10.15
 30
0.0
 11
89.475
 21
10.15
 31
0.0
  0
CIRCLE
  8
0
 62
0
 10
124.825
 20
48.625
 30
0.0
 40
2.65
  0
CIRCLE
  8
0
 62
0
 10
124.825
 20
-48.625
 30
0.0
 40
2.65
  0
ENDBLK
  0
ENDSEC
  0
SECTION
  2
ENTITIES
  0
INSERT
  2
SHAPE
  8
0
 10
0.0
 20
0.0
 30
0.0
  0
ENDSEC
  0
EOF
