  0
SECTION
  2
HEADER
  9
$ACADVER
  1
AC1009
  9
$INSBASE
 10
0.0
 20
0.0
 30
0.0
  9
$EXTMIN
 10
0.0
 20
0.0
 30
0.0
  9
$EXTMAX
 10
0.0
 20
0.0
 30
0.0
  0
ENDSEC
  0
SECTION
  2
TABLES
  0
TABLE
  2
VPORT
 70
0
  0
ENDTAB
  0
TABLE
  2
LTYPE
 70
1
  0
LTYPE
  2
CONTINUOUS
 70
0
  3
Solid line
 72
65
 73
0
 40
0.0
  0
ENDTAB
  0
TABLE
  2
LAYER
 70
1
  0
LAYER
  2
0
 70
64
 62
7
  6
continuous
  0
ENDTAB
  0
TABLE
  2
STYLE
 70
1
  0
STYLE
  2
STANDARD
 70
0
 40
0
 41
1.0
 50
0.0
 71
0
 42
1
 3
ARIAL.TTF
 4

  0
ENDTAB
  0
TABLE
  2
VIEW
 70
0
  0
ENDTAB
  0
ENDSEC
  0
SECTION
  2
BLOCKS
  0
BLOCK
  8
0
  2
SHAPE
 70
0
 10
0.0
 20
0.0
 30
0.0
  3
SHAPE
  0
LINE
  8
0
 62
0
 10
-129.925
 20
-49.725
 30
0.0
 11
-129.925
 21
49.725
 31
0.0
  0
ARC
  8
0
 62
0
 10
-125.925
 20
-49.725
 30
0.0
 40
4.0
 50
180.0
 51
-90.0
  0
ARC
  8
0
 62
0
 10
-125.925
 20
49.725
 30
0.0
 40
4.0
 50
90.0
 51
-180.0
  0
LINE
  8
0
 62
0
 10
-125.925
 20
-53.725
 30
0.0
 11
125.925
 21
-53.725
 31
0.0
  0
LINE
  8
0
 62
0
 10
-125.925
 20
53.725
 30
0.0
 11
125.925
 21
53.725
 31
0.0
  0
ARC
  8
0
 62
0
 10
125.925
 20
-49.725
 30
0.0
 40
4.0
 50
-90.0
 51
0.0
  0
ARC
  8
0
 62
0
 10
125.925
 20
49.725
 30
0.0
 40
4.0
 50
-0.0
 51
90.0
  0
LINE
  8
0
 62
0
 10
129.925
 20
-49.725
 30
0.0
 11
129.925
 21
49.725
 31
0.0
  0
LINE
  8
0
 62
0
 10
-4.8625
 20
-28.475
 30
0.0
 11
-4.8625
 21
-9.625
 31
0.0
  0
LINE
  8
0
 62
0
 10
-123.725
 20
-28.475
 30
0.0
 11
-4.8625
 21
-28.475
 31
0.0
  0
LINE
  8
0
 62
0
 10
-4.8625
 20
-9.625
 30
0.0
 11
-123.725
 21
-9.625
 31
0.0
  0
LINE
  8
0
 62
0
 10
-123.725
 20
-9.625
 30
0.0
 11
-123.725
 21
-28.475
 31
0.0
  0
LINE
  8
0
 62
0
 10
-71.3375
 20
28.475
 30
0.0
 11
-71.3375
 21
9.625
 31
0.0
  0
LINE
  8
0
 62
0
 10
-33.4375
 20
28.475
 30
0.0
 11
-71.3375
 21
28.475
 31
0.0
  0
LINE
  8
0
 62
0
 10
-71.3375
 20
9.625
 30
0.0
 11
-33.4375
 21
9.625
 31
0.0
  0
LINE
  8
0
 62
0
 10
-33.4375
 20
9.625
 30
0.0
 11
-33.4375
 21
28.475
 31
0.0
  0
LINE
  8
0
 62
0
 10
-123.725
 20
28.475
 30
0.0
 11
-123.725
 21
9.625
 31
0.0
  0
LINE
  8
0
 62
0
 10
-85.825
 20
28.475
 30
0.0
 11
-123.725
 21
28.475
 31
0.0
  0
LINE
  8
0
 62
0
 10
-123.725
 20
9.625
 30
0.0
 11
-85.825
 21
9.625
 31
0.0
  0
LINE
  8
0
 62
0
 10
-85.825
 20
9.625
 30
0.0
 11
-85.825
 21
28.475
 31
0.0
  0
LINE
  8
0
 62
0
 10
-114.2
 20
-9.425
 30
0.0
 11
-0.1
 21
-9.425
 31
0.0
  0
LINE
  8
0
 62
0
 10
-114.2
 20
9.425
 30
0.0
 11
-114.2
 21
-9.425
 31
0.0
  0
LINE
  8
0
 62
0
 10
-0.0999999999999
 20
-9.425
 30
0.0
 11
-0.0999999999999
 21
9.425
 31
0.0
  0
LINE
  8
0
 62
0
 10
-0.1
 20
9.425
 30
0.0
 11
-114.2
 21
9.425
 31
0.0
  0
ARC
  8
0
 62
0
 10
-124.825
 20
48.625
 30
0.0
 40
2.65
 50
-65.4747423616
 51
-0.0
  0
LINE
  8
0
 62
0
 10
-123.725
 20
46.2140873098
 30
0.0
 11
-123.725
 21
28.675
 31
0.0
  0
ARC
  8
0
 62
0
 10
-124.825
 20
48.625
 30
0.0
 40
2.65
 50
-24.5252576384
 51
-0.0
  0
LINE
  8
0
 62
0
 10
-123.725
 20
28.675
 30
0.0
 11
-104.875
 21
28.675
 31
0.0
  0
LINE
  8
0
 62
0
 10
-104.875
 20
47.525
 30
0.0
 11
-122.41408731
 21
47.525
 31
0.0
  0
LINE
  8
0
 62
0
 10
-104.875
 20
28.675
 30
0.0
 11
-104.875
 21
47.525
 31
0.0
  0
ARC
  8
0
 62
0
 10
-41.6083333333
 20
48.625
 30
0.0
 40
2.65
 50
-155.474742362
 51
-0.0
  0
LINE
  8
0
 62
0
 10
-44.0192460236
 20
47.525
 30
0.0
 11
-61.8125
 21
47.525
 31
0.0
  0
ARC
  8
0
 62
0
 10
-41.6083333333
 20
48.625
 30
0.0
 40
2.65
 50
-120.730881439
 51
-0.0
  0
LINE
  8
0
 62
0
 10
-61.8125
 20
47.525
 30
0.0
 11
-61.8125
 21
28.675
 31
0.0
  0
LINE
  8
0
 62
0
 10
-42.9625
 20
28.675
 30
0.0
 11
-42.9625
 21
46.3471210219
 31
0.0
  0
LINE
  8
0
 62
0
 10
-61.8125
 20
28.675
 30
0.0
 11
-42.9625
 21
28.675
 31
0.0
  0
LINE
  8
0
 62
0
 10
71.3375
 20
28.475
 30
0.0
 11
33.4375
 21
28.475
 31
0.0
  0
LINE
  8
0
 62
0
 10
71.3375
 20
9.625
 30
0.0
 11
71.3375
 21
28.475
 31
0.0
  0
LINE
  8
0
 62
0
 10
33.4375
 20
28.475
 30
0.0
 11
33.4375
 21
9.625
 31
0.0
  0
LINE
  8
0
 62
0
 10
33.4375
 20
9.625
 30
0.0
 11
71.3375
 21
9.625
 31
0.0
  0
ARC
  8
0
 62
0
 10
41.6083333333
 20
48.625
 30
0.0
 40
2.65
 50
-59.2691185609
 51
-0.0
  0
LINE
  8
0
 62
0
 10
42.9625
 20
46.3471210219
 30
0.0
 11
42.9625
 21
28.675
 31
0.0
  0
ARC
  8
0
 62
0
 10
41.6083333333
 20
48.625
 30
0.0
 40
2.65
 50
-24.5252576384
 51
-0.0
  0
LINE
  8
0
 62
0
 10
42.9625
 20
28.675
 30
0.0
 11
61.8125
 21
28.675
 31
0.0
  0
LINE
  8
0
 62
0
 10
61.8125
 20
47.525
 30
0.0
 11
44.0192460236
 21
47.525
 31
0.0
  0
LINE
  8
0
 62
0
 10
61.8125
 20
28.675
 30
0.0
 11
61.8125
 21
47.525
 31
0.0
  0
ARC
  8
0
 62
0
 10
124.825
 20
48.625
 30
0.0
 40
2.65
 50
-155.474742362
 51
-0.0
  0
LINE
  8
0
 62
0
 10
122.41408731
 20
47.525
 30
0.0
 11
104.875
 21
47.525
 31
0.0
  0
ARC
  8
0
 62
0
 10
124.825
 20
48.625
 30
0.0
 40
2.65
 50
-114.525257638
 51
-0.0
  0
LINE
  8
0
 62
0
 10
104.875
 20
47.525
 30
0.0
 11
104.875
 21
28.675
 31
0.0
  0
LINE
  8
0
 62
0
 10
123.725
 20
28.675
 30
0.0
 11
123.725
 21
46.2140873098
 31
0.0
  0
LINE
  8
0
 62
0
 10
104.875
 20
28.675
 30
0.0
 11
123.725
 21
28.675
 31
0.0
  0
LINE
  8
0
 62
0
 10
9.425
 20
28.675
 30
0.0
 11
9.425
 21
47.525
 31
0.0
  0
LINE
  8
0
 62
0
 10
-9.425
 20
28.675
 30
0.0
 11
9.425
 21
28.675
 31
0.0
  0
LINE
  8
0
 62
0
 10
9.425
 20
47.525
 30
0.0
 11
-9.425
 21
47.525
 31
0.0
  0
LINE
  8
0
 62
0
 10
-9.425
 20
47.525
 30
0.0
 11
-9.425
 21
28.675
 31
0.0
  0
LINE
  8
0
 62
0
 10
-18.95
 20
28.475
 30
0.0
 11
-18.95
 21
9.625
 31
0.0
  0
LINE
  8
0
 62
0
 10
18.95
 20
28.475
 30
0.0
 11
-18.95
 21
28.475
 31
0.0
  0
LINE
  8
0
 62
0
 10
-18.95
 20
9.625
 30
0.0
 11
18.95
 21
9.625
 31
0.0
  0
LINE
  8
0
 62
0
 10
18.95
 20
9.625
 30
0.0
 11
18.95
 21
28.475
 31
0.0
  0
LINE
  8
0
 62
0
 10
0.1
 20
-9.625
 30
0.0
 11
0.1
 21
-28.475
 31
0.0
  0
LINE
  8
0
 62
0
 10
123.725
 20
-9.625
 30
0.0
 11
0.1
 21
-9.625
 31
0.0
  0
LINE
  8
0
 62
0
 10
0.1
 20
-28.475
 30
0.0
 11
123.725
 21
-28.475
 31
0.0
  0
LINE
  8
0
 62
0
 10
123.725
 20
-28.475
 30
0.0
 11
123.725
 21
-9.625
 31
0.0
  0
LINE
  8
0
 62
0
 10
123.725
 20
-9.425
 30
0.0
 11
123.725
 21
9.425
 31
0.0
  0
LINE
  8
0
 62
0
 10
4.8625
 20
-9.425
 30
0.0
 11
123.725
 21
-9.425
 31
0.0
  0
LINE
  8
0
 62
0
 10
123.725
 20
9.425
 30
0.0
 11
4.8625
 21
9.425
 31
0.0
  0
LINE
  8
0
 62
0
 10
4.8625
 20
9.425
 30
0.0
 11
4.8625
 21
-9.425
 31
0.0
  0
LINE
  8
0
 62
0
 10
123.725
 20
28.475
 30
0.0
 11
85.825
 21
28.475
 31
0.0
  0
LINE
  8
0
 62
0
 10
123.725
 20
9.625
 30
0.0
 11
123.725
 21
28.475
 31
0.0
  0
LINE
  8
0
 62
0
 10
85.825
 20
28.475
 30
0.0
 11
85.825
 21
9.625
 31
0.0
  0
LINE
  8
0
 62
0
 10
85.825
 20
9.625
 30
0.0
 11
123.725
 21
9.625
 31
0.0
  0
ARC
  8
0
 62
0
 10
-124.825
 20
-48.625
 30
0.0
 40
2.65
 50
0.0
 51
24.5252576384
  0
LINE
  8
0
 62
0
 10
-122.41408731
 20
-47.525
 30
0.0
 11
-44.0192460236
 21
-47.525
 31
0.0
  0
ARC
  8
0
 62
0
 10
-124.825
 20
-48.625
 30
0.0
 40
2.65
 50
-0.0
 51
65.4747423616
  0
ARC
  8
0
 62
0
 10
-41.6083333333
 20
-48.625
 30
0.0
 40
2.65
 50
0.0
 51
155.474742362
  0
LINE
  8
0
 62
0
 10
-123.725
 20
-28.675
 30
0.0
 11
-123.725
 21
-46.2140873098
 31
0.0
  0
ARC
  8
0
 62
0
 10
-41.6083333333
 20
-48.625
 30
0.0
 40
2.65
 50
0.0
 51
24.5252576384
  0
LINE
  8
0
 62
0
 10
-4.8625
 20
-28.675
 30
0.0
 11
-123.725
 21
-28.675
 31
0.0
  0
LINE
  8
0
 62
0
 10
-39.1974206431
 20
-47.525
 30
0.0
 11
-4.8625
 21
-47.525
 31
0.0
  0
LINE
  8
0
 62
0
 10
-4.8625
 20
-47.525
 30
0.0
 11
-4.8625
 21
-28.675
 31
0.0
  0
ARC
  8
0
 62
0
 10
124.825
 20
-48.625
 30
0.0
 40
2.65
 50
0.0
 51
114.525257638
  0
LINE
  8
0
 62
0
 10
123.725
 20
-46.2140873098
 30
0.0
 11
123.725
 21
-28.675
 31
0.0
  0
LINE
  8
0
 62
0
 10
123.725
 20
-28.675
 30
0.0
 11
4.8625
 21
-28.675
 31
0.0
  0
LINE
  8
0
 62
0
 10
4.8625
 20
-28.675
 30
0.0
 11
4.8625
 21
-47.525
 31
0.0
  0
LINE
  8
0
 62
0
 10
4.8625
 20
-47.525
 30
0.0
 11
39.1974206431
 21
-47.525
 31
0.0
  0
ARC
  8
0
 62
0
 10
41.6083333333
 20
-48.625
 30
0.0
 40
2.65
 50
0.0
 51
155.474742362
  0
ARC
  8
0
 62
0
 10
41.6083333333
 20
-48.625
 30
0.0
 40
2.65
 50
0.0
 51
24.5252576384
  0
LINE
  8
0
 62
0
 10
44.0192460236
 20
-47.525
 30
0.0
 11
122.41408731
 21
-47.525
 31
0.0
  0
ARC
  8
0
 62
0
 10
124.825
 20
-48.625
 30
0.0
 40
2.65
 50
-0.0
 51
155.474742362
  0
ENDBLK
  0
ENDSEC
  0
SECTION
  2
ENTITIES
  0
INSERT
  2
SHAPE
  8
0
 10
0.0
 20
0.0
 30
0.0
  0
ENDSEC
  0
EOF
